<svg width="64" height="64" viewBox="0 0 64 64" fill="none" xmlns="http://www.w3.org/2000/svg">
  <rect width="64" height="64" rx="12" fill="url(#gradient)"/>
  <defs>
    <linearGradient id="gradient" x1="0" y1="0" x2="64" y2="64" gradientUnits="userSpaceOnUse">
      <stop offset="0%" stop-color="#2563eb"/>
      <stop offset="100%" stop-color="#dc2626"/>
    </linearGradient>
  </defs>
  
  <!-- Snowflake (cooling) -->
  <path d="M20 20 L20 28 M16 24 L24 24 M17.5 21.5 L22.5 26.5 M22.5 21.5 L17.5 26.5" 
        stroke="white" stroke-width="2" stroke-linecap="round"/>
  
  <!-- Flame (heating) -->
  <path d="M44 36 C44 32 42 30 42 28 C42 26 44 24 44 22 C44 20 42 18 40 18 C38 18 36 20 36 22 C36 24 38 26 38 28 C38 30 36 32 36 36 C36 40 40 44 44 44 C48 44 52 40 52 36 C52 32 48 30 48 28 C48 26 50 24 50 22" 
        stroke="white" stroke-width="2" stroke-linecap="round" stroke-linejoin="round" fill="white" fill-opacity="0.3"/>
  
  <!-- Text HP -->
  <text x="32" y="58" font-family="Arial, sans-serif" font-size="12" font-weight="bold" fill="white" text-anchor="middle">HP</text>
</svg>
